<svg width="130" height="50" viewBox="0 0 130 50" fill="none" xmlns="http://www.w3.org/2000/svg">
  <path fill-rule="evenodd" clip-rule="evenodd" opacity="0.4" d="m30.4,9.16s-.07-.02-.07-.07v-1.23s.02-.07.07-.07h.63c.29,0,.37.13.37.32v.09c0,.11-.03.18-.11.22.14.02.23.12.23.28v.4s-.02.07-.07.07h-.29s-.07-.02-.07-.07v-.29c0-.06-.02-.08-.07-.08h-.27v.37s-.02.07-.07.07h-.29Zm.36-.78h.14c.07,0,.08-.04.08-.09v-.06c0-.05-.02-.09-.08-.09h-.14v.24h0Z" fill="#434343"/>
  <path fill-rule="evenodd" clip-rule="evenodd" opacity="0.4" d="m30.93,9.98c-.83,0-1.51-.68-1.51-1.51s.68-1.51,1.51-1.51,1.51.68,1.51,1.51-.68,1.51-1.51,1.51Zm0-2.66c-.64,0-1.16.52-1.16,1.16s.52,1.16,1.16,1.16,1.16-.52,1.16-1.16-.52-1.16-1.16-1.16Z" fill="#434343"/>
  <path fill-rule="evenodd" clip-rule="evenodd" d="m4.96,33.91S1.49,31.08.43,24.11c-.31-2.71.01-5.33,1.01-7.87,1.14-2.91,2.97-5.29,5.46-7.16.5-.37,1.04-.68,1.45-1.17.6-.7.79-1.5.67-2.4-.09-.67-.33-1.29-.59-1.91-.16-.38-.33-.76-.39-1.18-.1-.78.33-1.47,1.06-1.75.78-.3,1.57-.3,2.38-.16,1.25.21,2.46.59,3.64,1.03,2.17.81,4.24,1.84,6.2,3.07,2.28,1.43,4.38,3.09,6.22,5.06,1.33,1.43,2.49,2.98,3.42,4.7,1.8,3.35,2.39,6.9,1.75,10.65-.22,1.31-.61,2.56-1.29,3.71-1.21,2.07-3.03,3.1-5.42,3.13-1.31.02-2.53-.3-3.72-.8-1.12-.47-2.19-1.04-3.24-1.66-1.16-.68-9.77-6.93-11.96-7.41-1.78.31-3.34.79-4.09,2.45-3.43,3.36,1.96,9.48,1.96,9.48h0Zm17.81-8.25c0-.81-.97-1.61-1.81-1.47-.65.1-.98.66-.75,1.29.23.63.87,1.09,1.54,1.1.59.01,1.02-.38,1.03-.91h0Z" fill="#434343"/>
  <path fill-rule="evenodd" clip-rule="evenodd" d="m21.45,33.33c.27-.15-7.34,8.56-16.52.59-2.28-1.98-6.71-11.99.52-12.19,4.6-.13,11.74,6.43,11.74,6.43-2.87-1.94-8.65-5.89-12.14-2.78-4.74,4.24,2.42,15.54,16.39,7.96h0Z" fill="#434343"/>
  <path fill-rule="evenodd" clip-rule="evenodd" d="m14.93,35.72c1.06-.3,2.05-.8,3.06-1.23,1.06-.45,2.13-.9,3.27-1.13.71-.14,1.48-.14,1.97.01-.56.81-1.02,1.67-1.54,2.5-.21.34-.45.66-.73.95-1.19,1.25-2.63,1.77-4.25,1.8-.41,0-.82,0-1.31,0,.72.15,1.37.31,1.99.55,1.58.59,2.51,1.75,2.89,3.35.42,1.76.68,3.55,1.14,5.3.14.54.26,1.09.46,1.61.05.13.05.18-.12.16-1.75-.24-3.44-.66-4.98-1.55-1.38-.8-2.46-1.9-3.31-3.25-.79-1.26-1.35-2.63-1.96-3.98-.32-.71-.53-1.28-.94-1.9-.45-.68-1.05-1.24-1.74-1.68-2.82-1.81-4.44-3.86-4.48-3.91,0,0,2.94,3.55,8.44,3.01.73-.14,1.45-.3,2.13-.6h0Z" fill="#434343"/>
  <path fill-rule="evenodd" clip-rule="evenodd" d="m22.77,25.66c0,.54-.44.93-1.03.91-.66-.01-1.31-.48-1.54-1.1s.1-1.18.75-1.29c.84-.13,1.81.66,1.81,1.47h0Z" fill="#ebebeb"/>
</svg>