<svg width="130" height="50" viewBox="0 0 130 50" fill="none" xmlns="http://www.w3.org/2000/svg">
  <path fill-rule="evenodd" clip-rule="evenodd" d="m4.87,33.98S1.37,31.13.3,24.1c-.31-2.73.01-5.38,1.02-7.94,1.15-2.93,2.99-5.33,5.51-7.22.5-.38,1.05-.69,1.46-1.18.6-.71.79-1.52.68-2.42-.09-.68-.33-1.3-.59-1.92-.16-.39-.34-.77-.39-1.19-.1-.79.33-1.48,1.07-1.77.78-.31,1.59-.3,2.4-.17,1.26.21,2.48.59,3.67,1.04,2.19.81,4.27,1.85,6.25,3.09,2.3,1.44,4.41,3.11,6.27,5.1,1.34,1.44,2.51,3,3.44,4.73,1.81,3.37,2.41,6.95,1.76,10.73-.23,1.32-.62,2.58-1.3,3.74-1.22,2.09-3.05,3.12-5.46,3.16-1.32.02-2.55-.3-3.75-.81-1.13-.48-2.21-1.05-3.26-1.67-1.17-.69-9.85-6.99-12.05-7.47-1.8.32-3.36.8-4.12,2.47-3.46,3.39,1.97,9.55,1.97,9.55h0Zm17.95-8.31c0-.82-.98-1.62-1.82-1.49-.66.11-.99.67-.76,1.3.23.63.88,1.1,1.55,1.11.59.01,1.03-.38,1.03-.92h0Z" fill="#ebebeb"/>
  <path fill-rule="evenodd" clip-rule="evenodd" d="m21.49,33.4c.27-.15-7.4,8.63-16.65.59-2.3-2-6.77-12.09.52-12.29,4.64-.13,11.83,6.48,11.83,6.48-2.9-1.96-8.72-5.94-12.24-2.8-4.78,4.27,2.44,15.66,16.53,8.02h0Z" fill="#ebebeb"/>
  <path fill-rule="evenodd" clip-rule="evenodd" d="m14.91,35.81c1.07-.31,2.07-.81,3.09-1.24,1.07-.46,2.15-.9,3.3-1.14.71-.15,1.49-.14,1.99.01-.56.82-1.03,1.68-1.56,2.52-.21.34-.46.66-.73.95-1.19,1.26-2.65,1.79-4.28,1.81-.41,0-.83,0-1.32,0,.73.15,1.38.31,2.01.55,1.59.6,2.53,1.76,2.92,3.38.42,1.77.69,3.57,1.15,5.34.14.55.27,1.1.46,1.63.05.13.05.18-.12.16-1.76-.24-3.47-.66-5.02-1.56-1.39-.8-2.48-1.92-3.33-3.28-.8-1.27-1.36-2.65-1.97-4.01-.32-.71-.53-1.29-.95-1.92-.45-.68-1.06-1.25-1.75-1.7-2.84-1.82-4.47-3.89-4.52-3.94,0,0,2.96,3.58,8.5,3.04.73-.15,1.46-.3,2.15-.6h0Z" fill="#ebebeb" stroke-width="0"/>
  <path fill-rule="evenodd" clip-rule="evenodd" d="m22.82,25.67c0,.54-.44.93-1.03.92-.67-.01-1.32-.48-1.55-1.11s.1-1.19.76-1.3c.84-.14,1.83.67,1.82,1.49h0Z" fill="#434343"/>
  <path fill-rule="evenodd" clip-rule="evenodd" opacity="0.4" d="m30.62,9.58s-.06-.02-.06-.06v-1.16s.02-.06.06-.06h.6c.27,0,.35.12.35.3v.08c0,.1-.03.17-.1.2.13.01.22.11.22.26v.38s-.02.06-.06.06h-.28s-.06-.02-.06-.06v-.27c0-.05-.02-.08-.07-.08h-.25v.35s-.02.06-.06.06h-.28Zm.34-.74h.13c.06,0,.08-.04.08-.08v-.06s-.02-.08-.08-.08h-.13v.23Z" fill="#ebebeb"/>
  <path fill-rule="evenodd" clip-rule="evenodd" opacity="0.4" d="m31.12,10.36c-.78,0-1.42-.64-1.42-1.42s.64-1.42,1.42-1.42,1.42.64,1.42,1.42-.64,1.42-1.42,1.42Zm0-2.51c-.6,0-1.09.49-1.09,1.09s.49,1.09,1.09,1.09,1.09-.49,1.09-1.09-.49-1.09-1.09-1.09Z" fill="#ebebeb"/>
</svg>