<?xml version="1.0" standalone="no"?>
<!DOCTYPE svg PUBLIC "-//W3C//DTD SVG 20010904//EN"
 "http://www.w3.org/TR/2001/REC-SVG-20010904/DTD/svg10.dtd">
<svg version="1.0" xmlns="http://www.w3.org/2000/svg"
 width="700.000000pt" height="700.000000pt" viewBox="0 0 700.000000 700.000000"
 preserveAspectRatio="xMidYMid meet">
<metadata>
Created by potrace 1.14, written by Peter Selinger 2001-2017
</metadata>
<g transform="translate(0.000000,700.000000) scale(0.100000,-0.100000)"
fill="#000000" stroke="none">
<path d="M2595 6804 c-110 -26 -142 -41 -187 -85 -74 -74 -85 -146 -42 -264
114 -308 129 -381 100 -495 -30 -117 -86 -183 -274 -319 -131 -95 -291 -247
-394 -375 -351 -436 -532 -999 -489 -1527 24 -303 120 -648 255 -924 91 -183
164 -296 290 -442 159 -184 328 -333 551 -486 137 -93 225 -176 282 -264 22
-34 79 -150 127 -259 195 -442 286 -595 450 -760 152 -152 313 -250 531 -323
83 -27 269 -70 373 -85 49 -7 50 -2 27 65 -28 79 -73 269 -134 570 -69 336
-95 428 -146 514 -90 150 -219 236 -451 299 l-89 25 107 0 c220 2 371 52 525
173 81 64 139 139 254 328 52 85 103 167 113 182 l17 27 -47 7 c-26 4 -88 4
-138 1 -125 -8 -274 -55 -563 -178 -295 -126 -348 -144 -468 -160 -136 -17
-423 -6 -536 20 -387 89 -675 304 -815 607 -127 274 -89 563 100 749 123 121
261 175 449 175 184 0 378 -54 622 -174 170 -84 271 -146 550 -336 279 -191
363 -241 570 -341 266 -128 419 -169 625 -169 256 0 439 69 596 225 208 206
325 519 354 943 10 157 0 357 -26 505 -135 783 -754 1548 -1682 2081 -456 261
-986 458 -1272 471 -52 2 -104 2 -115 -1z m1622 -3230 c57 -33 103 -103 103
-157 0 -172 -251 -166 -331 8 -24 52 -24 82 1 123 41 67 139 78 227 26z"/>
<path d="M5315 5872 c-112 -52 -150 -188 -81 -292 63 -96 209 -111 300 -31 39
34 58 91 54 158 -4 69 -20 97 -81 147 -48 39 -131 46 -192 18z m145 -44 c55
-29 81 -64 87 -120 10 -91 -59 -168 -152 -168 -61 0 -109 29 -136 83 -25 48
-22 115 8 156 22 29 96 71 128 71 11 0 41 -10 65 -22z"/>
<path d="M5320 5690 c0 -89 0 -90 25 -90 21 0 25 5 25 30 0 25 4 30 25 30 21
0 25 -5 25 -30 0 -25 4 -30 25 -30 23 0 25 4 25 44 0 25 -5 48 -11 51 -6 4 -8
13 -5 21 3 8 1 25 -4 39 -9 23 -15 25 -70 25 l-60 0 0 -90z m80 30 c0 -11 -7
-20 -15 -20 -8 0 -15 9 -15 20 0 11 7 20 15 20 8 0 15 -9 15 -20z"/>
</g>
</svg>
