<?xml version="1.0" encoding="UTF-8"?>
<svg id="a" data-name="Layer 1" xmlns="http://www.w3.org/2000/svg" viewBox="0 0 1366 768">
  <circle cx="683" cy="384" r="154.38" fill="#d3d9dc" stroke-width="0"/>
  <g>
    <path d="m740.49,317.78c-.2,0-.28-.09-.28-.28v-5.15c0-.2.09-.28.28-.28h2.65c1.19,0,1.57.54,1.57,1.33v.37c0,.44-.11.76-.44.9.58.06.96.49.96,1.15v1.68c0,.2-.09.28-.29.28h-1.23c-.2,0-.28-.09-.28-.28v-1.21c0-.24-.08-.34-.3-.34h-1.11v1.56c0,.2-.09.28-.28.28h-1.23Zm1.51-3.27h.59c.28,0,.35-.16.35-.37v-.27c0-.22-.07-.37-.35-.37h-.59v1.02h0Z" fill="#434343" fill-rule="evenodd" isolation="isolate" opacity=".4" stroke-width="0"/>
    <path d="m742.71,321.22c-3.48,0-6.3-2.83-6.3-6.3s2.83-6.3,6.3-6.3,6.3,2.83,6.3,6.3-2.83,6.3-6.3,6.3Zm0-11.13c-2.66,0-4.83,2.16-4.83,4.83s2.16,4.83,4.83,4.83,4.83-2.16,4.83-4.83-2.16-4.83-4.83-4.83Z" fill="#434343" fill-rule="evenodd" isolation="isolate" opacity=".4" stroke-width="0"/>
    <g>
      <path d="m634.16,421.24s-14.5-11.83-18.93-40.97c-1.3-11.32.05-22.29,4.22-32.91,4.77-12.15,12.41-22.09,22.84-29.92,2.07-1.56,4.34-2.86,6.07-4.88,2.5-2.93,3.29-6.29,2.81-10.03-.36-2.8-1.39-5.4-2.46-7.97-.67-1.6-1.4-3.18-1.61-4.93-.41-3.27,1.37-6.13,4.45-7.33,3.25-1.27,6.57-1.24,9.93-.69,5.24.86,10.27,2.46,15.23,4.31,9.08,3.38,17.71,7.69,25.93,12.82,9.55,5.96,18.3,12.91,25.99,21.17,5.56,5.97,10.42,12.44,14.28,19.63,7.52,13.99,9.98,28.84,7.3,44.51-.93,5.48-2.57,10.69-5.39,15.52-5.08,8.67-12.65,12.95-22.66,13.08-5.46.07-10.59-1.26-15.57-3.36-4.69-1.97-9.16-4.35-13.53-6.92-4.86-2.86-40.85-28.99-49.98-30.99-7.45,1.31-13.94,3.31-17.08,10.26-14.35,14.06,8.19,39.61,8.19,39.61h-.01Zm74.45-34.46c.01-3.41-4.06-6.73-7.56-6.16-2.73.44-4.09,2.77-3.15,5.37.94,2.61,3.65,4.56,6.42,4.61,2.46.05,4.27-1.58,4.29-3.82h0Z" fill="#434343" stroke-width="0"/>
      <path d="m703.1,418.83c1.12-.61-30.7,35.8-69.04,2.45-9.54-8.29-28.06-50.12,2.18-50.97,19.22-.54,49.07,26.87,49.07,26.87-12.01-8.12-36.17-24.63-50.74-11.61-19.82,17.72,10.12,64.95,68.53,33.26h0Z" fill="#434343" stroke-width="0"/>
      <path d="m675.82,428.82c4.44-1.27,8.57-3.34,12.8-5.14,4.44-1.89,8.9-3.75,13.67-4.73,2.95-.6,6.18-.59,8.25.05-2.34,3.39-4.27,6.99-6.46,10.44-.89,1.41-1.89,2.74-3.03,3.95-4.95,5.22-10.99,7.4-17.76,7.5-1.72.03-3.44,0-5.48,0,3.03.63,5.71,1.3,8.33,2.28,6.61,2.48,10.5,7.29,12.09,14.02,1.74,7.34,2.84,14.82,4.75,22.14.59,2.26,1.1,4.55,1.91,6.74.2.52.22.75-.48.66-7.31-1-14.37-2.74-20.83-6.46-5.78-3.33-10.28-7.96-13.82-13.58-3.31-5.25-5.64-10.99-8.18-16.63-1.33-2.95-2.21-5.36-3.93-7.96-1.88-2.84-4.4-5.2-7.27-7.03-11.78-7.55-18.55-16.15-18.72-16.34,0,0,12.29,14.84,35.27,12.59,3.03-.6,6.05-1.26,8.9-2.5h0Z" fill="#434343" stroke-width="0"/>
      <path d="m708.6,386.78c0,2.25-1.83,3.87-4.29,3.82-2.77-.06-5.48-2-6.42-4.61s.42-4.93,3.15-5.37c3.5-.56,7.57,2.76,7.56,6.16h0Z" fill="#ebebeb" stroke-width="0"/>
    </g>
  </g>
</svg>